<svg viewBox="0 0 200 420" xmlns="http://www.w3.org/2000/svg" width="200" height="420">
  <rect width="200" height="420" fill="#F8F8F8" rx="14"/>
  <!-- Head -->
  <circle cx="100" cy="40" r="26" fill="#2C2C2C"/>
  <!-- Neck -->
  <rect x="90" y="64" width="20" height="16" fill="#2C2C2C"/>
  <!-- Body: slightly overweight — some belly, slight waist, wider hips -->
  <path d="
    M 90,78
    C 74,80 56,90 46,108
    C 36,126 32,148 32,168
    C 32,184 36,200 44,214
    C 48,222 52,228 54,236
    C 56,244 56,254 56,262
    L 56,368
    L 84,368
    L 84,266
    C 89,268 95,269 100,269
    C 105,269 111,268 116,266
    L 116,368
    L 144,368
    L 144,262
    C 144,254 144,244 146,236
    C 148,228 152,222 156,214
    C 164,200 168,184 168,168
    C 168,148 164,126 154,108
    C 144,90 126,80 110,78
    Z
  " fill="#2C2C2C"/>
  <!-- Leg gap -->
  <rect x="84" y="260" width="32" height="112" fill="#F8F8F8"/>
</svg>
